<svg version="1" xmlns="http://www.w3.org/2000/svg" width="1600" height="1600" viewBox="0 0 1200.000000 1200.000000"><path d="M536 112.7c-67.3 3.8-135.5 24.4-192.2 58-35.4 20.9-64.5 43.8-96.8 76.3-27.9 28-34.9 36.9-50.5 64-40.2 69.9-63.7 135.9-69.5 195-.6 5.8-1.9 15.4-3 21.5-2.9 16.1-4 34.4-4 66.1 0 31.7 1.1 49 4.1 63.2 1.2 5.6 2.4 16.9 2.9 26.7 1 19.1 2.3 25.6 7.5 37.3 1.9 4.4 3.5 9.1 3.5 10.4.1 2.1.2 2.1 1.1.5.6-1 2.2-2.3 3.7-2.8l2.5-1-3.4-1.7c-8.6-4.4-13.2-20.6-12.8-45.7.1-9.6-.2-13.3-1.8-18.5-4.1-13-4.8-23.1-4.8-68.5 0-45 .8-56.8 4.6-70.4 1-3.9 1.9-9.9 1.9-13.3 0-20 10-64.2 22.1-97.9 17-47.6 50.7-111.9 70.8-135.4 13-15.2 47-48.6 61.9-61 59.8-49.3 121.5-79 193.8-93.4 21.8-4.3 54.9-7.9 76.9-8.2 5.8-.1 7.2-.3 5-.9-3-.8-13.2-.9-23.5-.3zM613 112.9c-2.4.4 1.5.9 12 1.4 93.1 4.3 180.3 39 266 105.7 12.2 9.5 24 21.6 44.4 45.4 35.3 41.2 60.4 82.9 68.1 113.1 1 3.8 2.8 8.1 4.1 9.5 2.4 2.6 7 12.2 7.5 15.6 1 6.3 4.4 4.5-82.8 45.7-45 21.2-84.8 40-88.4 41.7-5.2 2.4-7.1 2.9-9 2.1-1.3-.5-10.5-8.3-20.4-17.3-9.9-8.9-17-15-15.8-13.3 1.2 1.6 4 4.8 6.3 7s6.5 6.7 9.3 10c5.2 6.2 11.6 11.6 22.7 19.2 3.6 2.4 8.7 5.9 11.4 7.8 3 2.2 6 3.5 7.9 3.5 3.6 0 119-54.1 133.2-62.5 5-2.9 11.6-6 14.9-7 3.2-.9 9.6-3.6 14.1-6.1 11.7-6.3 13-10.7 6.5-20.6-1.7-2.5-3.5-7.3-4.4-11.5-2-9.7-15.1-40.3-23.7-55.4-12.5-21.9-28.6-45.2-44-63.9-31.7-38.3-49.6-56.7-70.5-72.2-75.1-55.7-150.3-87.4-228.4-96.2-16.6-1.9-36.3-2.7-41-1.7z"/><path d="M527 122.1c-114.5 9.3-214.2 61.4-297.1 155.5-13.8 15.7-27.8 38.9-47.3 78.3-25.6 51.7-40.5 98.2-46.2 144-1.5 12-1.5 13.5-.1 14.8 1.4 1.4 1.4 1.8-.4 4.2-4.8 6.5-6.9 29.7-6.9 75 0 33.8.9 49.6 3.5 61.6 2.4 10.9 5.6 13.6 7 5.7.4-2.5.1-4.7-1-6.8-1.5-3.1-3.5-11.9-3.5-15.5 0-1.7.7-1.6 6.5 1.3 5.9 3 6.3 3.3 4.9 4.9-1.4 1.5-1.2 2.3 1.6 7.8 2 4.1 3.5 5.9 4.3 5.4.7-.4 3.4-2.4 6-4.5 2.7-2.1 5.8-3.8 7-3.8 1.8 0 1.4.7-2.6 4.8l-4.8 4.8 1.6 7.3c.8 4 1.5 9.2 1.5 11.7v4.4h-5c-4.2 0-6.1-.7-12.7-4.9-4.3-2.8-7.9-4.8-8.1-4.6-.2.2.1 7.1.7 15.3 1.2 16.2 3.5 25.9 7.2 29.8 2 2.2 3.1 2.4 11 2.4h8.8l.3-2.8.3-2.7 16-.5c14.5-.5 16.8-.8 24.4-3.5 6.5-2.3 8.5-2.7 8.9-1.7.6 1.9 6.2-3.6 6.2-6.1 0-1.4.5-1.8 1.7-1.4 11 3.1 11.1 3.1 13.1 1.4 1-.9 3.4-1.7 5.2-1.7 3.1 0 3.2.1 1.7 1.8-1.5 1.6-1.5 2-.1 3.4s1.3 2.1-1.6 7.8c-2.9 5.8-3 6.3-1.5 8 2 2.2 1.6 5.9-.7 7.4-1.4.8-3 .4-7.5-1.8-3.8-1.8-5.9-2.4-6.1-1.6-.3.8-1 .6-2.2-.5-1.6-1.5-2.1-1.3-6.1 1.7-6.1 4.7-10.1 11.6-10.7 18.2-.4 4.5 0 6.2 2.3 10.5 4.5 8.2 6.5 9.5 14.8 9.9 6.9.4 7.3.3 10.1-2.7 1.8-1.8 4-3.1 5.4-3.1 3.4 0 10.6 4.8 16.7 11 5.4 5.5 5.3 5.5 10.8 3.9 3-.8 4.2-1.8 5.3-4.4.8-1.9 1.4-4.6 1.4-6 0-3.1 2.9-3.4 5.5-.5 1.7 1.9 1.7 2.1.2 3.8-2.1 2.3-2.2 4.6-.2 6.2 2.5 2 1.7 5.4-2 9l-3.5 3.4v-3.2c0-2.9-.3-3.2-3.2-3.2-1.7 0-3.9.7-4.8 1.5-1.5 1.3-2.1 1.2-5.9-1.7-3.2-2.3-4.5-2.8-5.1-1.8-.6 1-1.7.9-5.6-.4-7.6-2.6-7.6-2.5-4.3 7.1 1.6 4.8 2.9 9.3 2.9 10 0 2.1-5.1 1.5-7.7-.9-2.1-2-2.2-2.3-.7-3.9 1.5-1.7 1.5-2-.5-4.7-5.7-8.1-15.2-14-23.7-14.9-4.7-.5-5.4-.3-5.4 1.2 0 1-.5 1.5-1.2 1.2-.7-.2-4.6-1-8.5-1.7-8.7-1.6-8.4-.2-4.8-21.8.7-3.6 2.7-4.2 5.7-1.5 1.7 1.5 1.8 1.5 1.8-1.4 0-1.7-.7-3.6-1.5-4.3-2.2-1.9-1.9-2.6 3-7.1l4.6-4.2-3.3-3.4c-2.7-2.8-3.9-3.3-8-3.3H190v5.2c0 4.9-.1 5-1.8 3.5-2.3-2.1-4.1-2.1-6.2-.2-1.6 1.4-1.8 1.3-2.4-2.4-.4-2.6-1.3-4.4-2.7-5.1-1.1-.7-2.2-1-2.4-.8-.2.2.2 3.1 1 6.3 1.9 8 1.9 9.5-.2 9.5-11.5 0-20.3 11-20.3 25.2 0 7.9 15.9 50.7 26.8 72.3 6.7 13 11.2 18.5 15.3 18.5 3.4 0 3.4.2 1.3 6.2l-1.5 4.6 21.7 30.3c11.9 16.7 22.8 31.9 24.1 33.7l2.5 3.4 3.2-3.1c6.7-6.5 10.6-2.9 8.5 7.7l-1.2 6.7 12.9 12.3c42.1 40.3 77.7 66.8 107.3 79.7 15.4 6.8 19.7 7.9 24.1 6.6 4.6-1.4 6.1-3.1 7-7.9.5-3.5.8-3.7 4.3-3.6 4.7.2 7.4 2.6 8.8 7.7l1 3.9 2.9-2.7 2.8-2.7 10.1 3.2c9.3 2.8 10.1 3.3 9.6 5.3-.6 2.9-2.3 14.2-2.1 14.4.2.2 56 12.3 56.9 12.3.4 0 .7-.7.7-1.5 0-1 1-1.5 3-1.5 3.6 0 3.7-1.1 1.4-9.1-1.9-6.5-5.6-11.7-8.9-12.5-1.6-.4-2.5-1.3-2.5-2.5 0-2.2 2.9-2.6 4.8-.7 1.6 1.6 1.5.2-.2-7.7-1-4.9-1-6.7 0-9.5 1.9-5.3 1.7-5.7-3-6.9-4.8-1.2-6.1-2.3-7.1-6.2-.5-2.1 0-3.4 2.5-6.3 1.8-2 4-3.6 4.9-3.6.9 0 4 1.6 6.8 3.5 5.9 4 7.9 4.5 6.1 1.6-1-1.6-.6-2.8 2.2-7.2 8.1-12.9 14.6-19.9 18.4-19.9 3.8 0-3 15.8-12 27.8-3 4-5.4 7.5-5.4 7.7 0 .3 2 1 4.6 1.6 4.4 1.1 4.5 1.3 4.2 4.8-.3 3.3-.6 3.6-3.5 3.9-3.2.3-3.3.5-3.3 4.7v4.3l6.3-1.5c4.1-1.1 7.3-2.6 9.5-4.6 2.9-2.9 3.2-3.6 3.2-9.4v-6.3h-3c-2.8 0-3-.2-3-3.8 0-3.3.6-4.2 6-8.5 3.2-2.6 6.4-4.7 7-4.7.6 0 3.7 1.3 7 3 8.7 4.4 9.1 4.3 12.3-4.7 1.5-4.3 2.7-9.2 2.7-10.9 0-2.9-.3-3.2-4.2-3.7-3-.4-5-1.4-6.6-3.3-2.5-2.8-3.4-2.8-14.9.2-2.7.7-2.9-.6-1.2-10.1l1-6.1 4.2-1c2.9-.6 4.5-1.6 5.2-3.1 1.3-2.9 1.6-2.9 5 .7 3.3 3.4 5.5 3.8 7.8 1.2 2.2-2.4 2.1-3.5-.3-5.7-2.6-2.3-2.8-10-.3-12.7 1.5-1.7 1.5-1.8 0-1.8-2.1 0-2.2-3.3-.2-5 2.9-2.4 1.3-5.2-4.4-8.2-4.1-2.2-5.6-2.6-6.2-1.6-.6.9-3.2.6-11.2-1.5-5.8-1.5-12.4-2.7-14.8-2.7-5.3 0-18.9 3-18.9 4.2 0 .5.7 2.5 1.5 4.5 2.1 5.1 1.9 10.9-.5 13.3-1.9 1.9-3.1 2.3-10.2 3.5-3.7.6-5.1 2.6-2.8 4 2 1.3.9 2.3-3.7 3.4-2.7.7-5.5 1.4-6.4 1.7-1.3.4-1.7-.5-2.1-4.5-.6-6.2-3-10-6.8-10.8-2.6-.5-3-1-3-3.8 0-3.4 1.6-4.5 7-4.5 4.4 0 14.3-5.5 18.8-10.4 2.4-2.6 5.8-7.7 7.4-11.4 1.7-3.7 3.2-6.8 3.2-6.9.1 0 4.4.6 9.6 1.5 8.2 1.5 9.5 2 9.8 3.8.2 1.1-.4 2.7-1.3 3.4-.8.7-1.5 2.1-1.5 3.1 0 1.4.7 1.9 3 1.9 2.9 0 3-.1 3-5v-5h3.9c2.2 0 4.2.5 4.4 1.2.4.8.6.7.6-.3.1-.9.8-2.2 1.6-2.9 1-.8 1.5-3 1.5-6v-4.8l-5.2-1.2c-2.9-.7-15.2-3.7-27.3-6.6l-22-5.4-20-13.4c-37.2-24.9-44.3-30.9-51.1-43.4-13.9-25.8-39.2-66.6-45.3-73.1-3.6-3.8-3.6-3.9-1.6-6.1 1.2-1.4 1.3-2.9.6-9.1-1.6-12-5.1-17.9-11.8-19.8-2.6-.8-3.2-.6-3.6 1-.7 2.8-6.7 2.7-6.7-.1 0-1.2.7-2 1.7-2s3.8-2 6.3-4.5l4.7-4.6-1.9-14.2c-5.6-43.6-13.2-77.1-19.2-85-1.2-1.6-1.7-1.6-5.6-.2-5.6 2-8.3 1.9-10.3-.3-2.2-2.4-2.1-4.5.3-6.7 1.8-1.6 2.2-1.6 6-.1 4.3 1.7 5.1 1.6 8.8-1.7 2.7-2.5 3.1-8.8.5-10.8-1.5-1.3-1.3-1.5 1.7-1.9 4.6-.7 6.9-4.2 8.5-13.6 1.8-10.2 2-31.8.3-33.1-.7-.6-2.8-1.3-4.7-1.7-3.8-.7-7.1-3.2-7.1-5.3 0-1.6 10.5-1.9 11.5-.3 1.4 2.3 2.2.4 3.8-9.8 2.5-14.7 8.8-40.4 13.8-55.3 11.4-34.7 29-68.6 48.6-93.7 5.3-6.8 6.4-8.8 6.1-11.5l-.3-3.2-2.2 2.2c-1.3 1.3-2.3 3.4-2.3 4.8 0 3.7-3.2 3.2-6.9-1-3-3.5-7.6-11.4-6.9-12 .2-.2 6.1 1.1 13 3l12.8 3.3 27.9-21.1 28-21.2 36-12.5c19.9-6.9 36.1-12.8 36.1-13.1 0-.3-1.8-1.1-4-1.8-6.5-1.9-5.4-4.1 6-11.8l10-6.8v-74.1c0-70.5-.1-74.2-1.8-75.7-1.6-1.4-4-1.7-14.8-1.6-7.1.1-17.6.6-23.4 1zM303 281c0 2.7-6.7 9.9-11.9 12.8l-4.1 2.3V286l6.8-3.4c7.8-4.1 9.2-4.3 9.2-1.6zm-96 151.5v3.5h-11v-7h11v3.5zm139 68c-7.4 7.5-10 8.3-10 3 0-3.2.3-3.5 2.8-3.5 3.2 0 7.2-2.5 7.2-4.6 0-.9 1.1-1.4 3.2-1.4h3.2l-6.4 6.5zm-55.2 3.2l.3 3.3h-5.5c-5.5 0-5.6-.1-5.6-2.8 0-3.9.7-4.3 6-4 4.3.3 4.5.5 4.8 3.5zM207 537.8c0 3.6-.5 5.4-2 6.7-2 1.8-2.1 1.8-5.5-1.5-2.6-2.5-3.5-4.2-3.5-6.7V533h11v4.8zm24.4 10.2c6.4 2.7 6.2 5-.4 5h-5v-3.5c0-1.9.2-3.5.4-3.5s2.5.9 5 2zm-52.2 14.1c3 2 4.8 3.8 4.8 5.1 0 2.1-1 2-7.7-.8-2.7-1.1-3.3-1.8-3.3-4.3 0-1.7.3-3.1.7-3.1.3 0 2.8 1.4 5.5 3.1zm72.3 9.6c3.3 7.7 11.1 16.3 14.6 16.3 1.2 0 3.1-.7 4.1-1.7 1.7-1.5 1.8-1.4 1.8 2 0 6.6 7.1 12.2 19.5 15.3 2.3.6 2.5.3 2.5-2.5 0-2.4.4-3.1 2-3.1s2 .7 2 3v3H317.3l-.7 3c-3 15-3 15.9-1.1 18 2.2 2.4 2.3 2.3-3.8 4.3l-4.9 1.6-6.5-4.9c-3.6-2.8-7.2-5-7.9-5-1.9 0-1.8 5.4.1 7 2.6 2.2 1.6 3-3.5 3h-5v-3.5c0-3.1-.3-3.5-2.6-3.5-2.5 0-2.6.2-2 3.2.4 1.8 1 4.8 1.3 6.5l.6 3.3H273c-7.3 0-8.1-.2-7-1.5 1.1-1.3.8-2.1-2-5-3.8-4-4.6-4.2-7.2-1.9-1.4 1.4-2 1.4-3.3.4-1.8-1.5-2-5.1-.3-6.8 1.9-1.9-3.3-1.6-6 .4-1.5 1-2.2 1.1-2.2.3s-1.7-1-6.2-.5c-10.8 1.2-12.8 1.7-12.8 3.5 0 2.7-3.5 7.1-8.1 10.2-7.1 4.8-24.9 9.7-24.9 7 0-1.9 7.4-7.2 16.4-11.7 8.5-4.2 9.5-5 10-7.9.8-3.9 2.2-5.3 6.4-6.1 3.6-.7 3.8-1.8 2.2-10.5-2.3-12.3-8.4-18.9-19.1-21-6.4-1.3-7.6-3.1-4-6.3 1.7-1.6 2.5-1.6 5.8-.6 4.2 1.4 8.3 4.6 8.3 6.6 0 2.3 1.8 2.5 9.2.9 7.2-1.5 19.8-6.9 19.8-8.4 0-.5-.7-2.8-1.5-5.1-2-5.7-1.9-8 .3-8 1.2 0 2.6 2 4.7 6.7zM187.7 604c.9 0 2.5-.7 3.5-1.7 1.7-1.5 1.8-1.4 1.8 2.1 0 3.8-.3 4-6.7 6-2.2.7-2.3.5-2.3-4.6.1-4.1.3-4.9 1.1-3.6.5 1 1.7 1.8 2.6 1.8zm2.8 43l2.9 3H180v-3c0-2.8.2-3 3.8-3 2.9 0 4.5.7 6.7 3zm35.5 1c0 3-.7 4.7-2.5 6.5-2.2 2.3-4.5 3.3-4.5 2 0-.3.7-3.2 1.7-6.5 1.2-4.6 2.1-6 3.5-6s1.8.8 1.8 4zm-11.2 16.9c-3.6 4.1-4.4 4.5-4.6 2.9-.4-2.5 4.4-7.8 7.1-7.8 1.5 0 1 .9-2.5 4.9zM340 685.8v3.8l-6.2 1.3c-3.5.7-7.3 1.5-8.5 1.8-1.7.4-2.3.1-2.3-1.3 0-.9-.7-2.6-1.6-3.6-1.9-2.1-2.1-2 7.6-4.2 10.5-2.3 11-2.2 11 2.2zm-29.4 9.8c-7.4 7-7.8 7-9.1.3-.7-3.6-.6-3.7 3.7-5.2 2.3-.9 6.1-1.6 8.3-1.6h4l-6.9 6.5zm-38.8 3.1l-3.5 3.8 1.7 7.7c1.8 7.8 1.8 7.8-.3 7.8-3.5 0-24.7-12.2-24.7-14.2 0-2.2 3.2-2.4 8.9-.3l4.2 1.5 6.6-5c3.6-2.8 7.5-5 8.7-5 1.8 0 1.6.5-1.6 3.7zm38.2 30.6v8.3l3.5 1.3c4 1.4 12.2 10.1 19.5 20.6 6.2 9.1 6.8 10.5 4.3 10.5-1 0-4.5-2.7-7.8-6-6.1-6.2-8.3-7.1-10.5-4.5-.9 1.1-3.4 1.5-9.9 1.5h-8.6l-4.8-7.9c-2.6-4.4-4.7-8.2-4.7-8.5 0-.3 1.4-.6 3-.6 2 0 3-.5 3-1.5 0-1.1-1.3-1.5-5.3-1.5-4.3 0-6.1.6-10.5 3.5-5.4 3.7-9.2 9.4-9.2 14 0 1.8-.5 2.5-1.9 2.5-2.5 0-2.7-.3-4.2-7.7l-1.3-6.2 6.5-9.5c4.8-7.1 7-9.5 8.6-9.6 1.2 0 2.5.5 2.9 1.1.5.8.8.8 1.4 0 .5-.8 2.6-.7 7.9.6l7.3 1.7 1.9-2.3c1.1-1.3 1.9-3.6 1.9-5.2 0-2.6.3-2.9 3.5-2.9h3.5v8.3zM253 742c2.5.6 5.5 1.2 6.8 1.5 1.9.5 2.2 1.2 2.2 5.5 0 2.8-.4 5-.9 5s-2.7-.6-4.9-1.4l-4.1-1.5-1.6 5c-2.3 6.7-4.7 6.7-7-.1-1.6-4.9-1.6-7.1.5-12.5 1-2.7 2.2-2.9 9-1.5zm-75 33c6.5 1.7 7.6 1.7 9 .5 2.4-2.2 3.4-1.9 7.3 2.4 4.3 4.8 6 9.8 5.5 16.7l-.3 5.1-16.2-9.6c-17-10-18.2-11.3-14.6-15.3.9-1 1.7-1.8 1.7-1.8.1 0 3.5.9 7.6 2zm195 15c0 3-.1 3-5.5 3-4.7 0-5.5-.3-5.5-1.9 0-1.4 1.1-2.2 3.8-2.9 6.4-1.7 7.2-1.5 7.2 1.8zm26.6 25.2c2.4 1.7 4.4 3.4 4.4 3.8 0 .3-1.5 2.1-3.4 3.9l-3.3 3.2-3.2-3.9c-3.8-4.8-4.3-10.2-1-10.2 1.1 0 4.1 1.4 6.5 3.2zM281 825.6c0 1.1-6.1 9.4-7 9.4-1.5 0-11.5-2.2-11.9-2.6-.3-.3 1.1-2 2.9-3.9 3.2-3.3 3.8-3.5 9.7-3.5 3.5 0 6.3.3 6.3.6zm102.1 29.7c1 2.3 1.9 6.1 1.9 8.4 0 4.2-.1 4.3-3.3 4.3-2.1 0-4.1-.8-5.2-2-1.7-1.9-1.7-2.2-.1-6.3 2-5.4 2-7.6-.1-10-1.8-2-1.8-2 1.5-.3 2.2 1.1 4 3.2 5.3 5.9zm27.4 11.1c2.9.9 4 1.7 4 3.1 0 1.6-2.4 2.7-13.5 6.2-7.4 2.3-13.9 4.3-14.5 4.3-.5 0 2.6-3.6 7-8 8.6-8.6 7.5-8.3 17-5.6zM286 872.5c1.2 1.4 1.5 1.4 3.1-.1 1.8-1.6 1.9-1.6 1.9 1.7 0 5-5.4 10.2-10.1 9.7-3-.3-3.4-.7-4.6-5.3-.7-2.8-1.3-5.6-1.3-6.3 0-1.8 9.4-1.6 11 .3zm-53.7 21.1c1.6 1.9 2.7 3.7 2.5 3.8-1.2 1-9.2 3.6-10.8 3.6-1.8 0-2-.7-2-5.5V890h3.8c3.1 0 4.2.6 6.5 3.6zm117.4-2.4c-.2.7-1 3.9-1.7 7-1 4.5-1.7 5.8-3.2 5.8-1.6 0-1.8-.9-1.8-7v-7h3.6c2.5 0 3.5.4 3.1 1.2zm145.5 2.5c2.1 2 3.8 4.3 3.8 5 0 1.6-1.2 1.7-2.7.2-.8-.8-2.3-.3-5.7 2l-4.6 3.2v-3.6c0-3.2.2-3.5 3-3.5 3.4 0 3.8-1.4 1.4-4.8-2.5-3.6.5-2.7 4.8 1.5zm-247.9 8c2.2 6 2.2 8.3 0 8.3-3.3 0-5.3-3.1-5.3-8.2 0-4 .3-4.8 1.8-4.8 1.2 0 2.3 1.5 3.5 4.7zm156.4 10.5l11.3 11.3V936h-4.2c-6.6 0-14.5-5.9-17.6-13-1.6-3.9-3-22-1.6-22 .5 0 5.9 5.1 12.1 11.2zm-121.3 8.5c2.1 6.2 2.2 6.1-2.1 7.2-6.8 1.7-9.8 1.2-12.9-2l-2.8-2.9 3.4-3.5c2.9-3 4-3.5 8.1-3.5h4.7l1.6 4.7zm44.6 3c0 .4-.7 3.3-1.6 6.5-1.6 5.7-1.7 5.8-5.3 5.8-2.9 0-4.4-.7-7-3.4l-3.4-3.5 6.4-3c6.1-2.8 10.9-3.9 10.9-2.4zm-22.7 18.8c-2.5 3-6.3 4.7-6.3 2.8 0-.4 1.9-2.7 4.3-5.1 3.1-3.1 4.3-3.9 4.5-2.7.2.8-.9 3.1-2.5 5zM337 941v5h-8v-10h8v5zm22.3 11c9.7 3.1 9.8 3.1 12.5 1.2 1.5-1.1 3.7-2.4 5-3.1 2-1.1 2.2-1 2.2 1.8 0 1.9-1.1 4.3-3 6.4-2.4 2.8-4.2 3.7-9 4.6-4.9 1-6.3 1.7-7.2 3.7-1.6 3.6-4.8 3.2-4.8-.6 0-3.4-.7-3.6-5.4-1.6-3.3 1.4-3.5 1.3-7-2.3-4-4.1-4.4-5.6-2-8.3 1.4-1.4 1.4-2 .4-3.3-2.2-2.6 7.5-1.8 18.3 1.5zm-26.5 38.9c.2 1.8-.2 3.9-.8 4.6-1 1.2-.6 1.3 2.2.5 4.3-1.3 7.7-1.2 15.5.1 5.1.9 6.3 1.5 6.3 3 0 1.8-.8 1.9-10.7 1.9-11.2-.1-16.8-1.3-20.5-4.7-3.9-3.4-7.8-9.6-7.8-12.4v-2.8l7.8 3.3c7.1 3 7.7 3.5 8 6.5zm48.3-5.4c0 .6-.5 2.9-1.2 5.2-1.1 4-1.4 4.3-4.6 4.3h-3.5l2.3-3.8c1.2-2 2.9-4.5 3.7-5.5 1.6-1.8 3.4-1.9 3.3-.2zm56.4 20.1c5.1 1.3 6.5 2 6.5 3.5 0 1.6-.8 1.9-5.2 1.9-5.5 0-8.8-1.9-8.8-5.2 0-2.2-.4-2.2 7.5-.2zm42.5 1.4c0 2.9 2.9 7 5 7 .6 0 1 1.6 1 3.5v3.5h-13.8l-1.3-3.8c-.6-2-2-5.8-3-8.5l-1.9-4.7h14v3zm-107.7 4c5 0 3.2 3.2-3.6 6.7-6.2 3.3-9.7 4.1-9.7 2.4 0-2 3.2-9.6 4.7-11.3 1.6-1.8 1.7-1.8 3.8.2 1.2 1.1 3.3 2 4.8 2zm89.3 12c2.3.9 2.5 1.5 2.2 5.7l-.3 4.8-6.7.3c-6.5.3-6.8.2-6.8-2.1 0-1.2.5-2.8 1.2-3.5.9-.9.5-1.2-2-1.2s-3.2-.4-3.2-2c0-1 .8-2.4 1.8-3 1.8-1.1 9.6-.6 13.8 1z"/><path d="M246.6 586.9c-1.6 1.1-5.4 2.7-8.5 3.6-3.1.9-6.1 1.8-6.8 2-.9.3-.7 1.6.7 4.8 1.1 2.5 2.3 7.5 2.7 11.3.7 6.3 1 6.9 3.1 6.8 1.2 0 5.6-.1 9.8-.2 6.8-.2 7.5-.4 7-2-.5-1.5.5-2.5 4.3-4.5 8-4.4 12-3.5 16.7 3.7 1.8 2.8 1.8 2.9-.5 4.7-2.7 2.2-7.9 2.4-12.5.5-3.3-1.4-3.3-1.4-2.2 1 .6 1.3 1.7 2.4 2.4 2.4s3.2 1.8 5.5 3.9l4.2 3.9-.3-3.7c-.5-5.1 2.4-7.6 8.9-7.7 2.7 0 5.5-.6 6.1-1.2 2.4-2.4 8.8-1.4 13.9 2.3 2.7 1.9 5.1 3.5 5.3 3.5.5 0 2.9-10 2.5-10.4-.2-.2-4.4-.6-9.4-.9-15.1-1-26.7-5.6-31-12.4-1.1-1.8-3.2-3.5-4.7-3.8-1.5-.4-5-2.6-7.7-5.1-2.7-2.4-5.3-4.4-5.7-4.4-.5 0-2.2.9-3.8 1.9zM302.8 736.5c-.3.4-.1 1.9.5 3.5.9 2.3.8 3.6-.5 6.2-1.4 2.9-1.4 3.6 0 5.6 1.2 1.8 2.3 2.2 6.6 2.2 2.9-.1 5.9-.7 7.1-1.5 1.9-1.5 1.9-1.5 0-3.5-1.1-1-4-3-6.5-4.3-3.2-1.7-4.8-3.3-5.6-5.5-.5-1.8-1.3-3-1.6-2.7zM187.2 782.9c-2.3.6-2.2.8 1.8 3l4.2 2.3-1.6-3.1c-.9-1.7-1.8-3.1-1.9-3-.1.1-1.3.4-2.5.8zM398 916.3c0 2.4 3.2 7.7 6.1 10.1 3 2.6 3.4 2.7 3.7 1.1.3-1.1-1.5-3.7-4.7-6.9-2.8-2.8-5.1-4.7-5.1-4.3zM347 957c0 1.2.8 1.2 3.5 0 1.8-.8 1.7-.9-.7-.9-1.6-.1-2.8.3-2.8.9zM606.2 124.3l-3.2 3.3v81.5c0 78.7.1 81.7 1.9 83.3 3.3 3 11.8 5.6 26.8 8.1 28.2 4.9 62.4 20.7 91.3 42.1 5.8 4.3 17.3 14.6 25.6 22.8l15 15.1 20.2 33.7c11.3 18.7 20.2 34.7 20.2 36 0 1.3-.6 3-1.2 3.7-1.1 1-.6 1.9 2.2 4.4 1.9 1.7 9.9 8.9 17.7 15.9l14.2 12.9 80.8-38.2c44.4-21 81-38.3 81.2-38.5.3-.3-1.2-2.1-3.2-4.2-4.8-4.9-4.8-7.9-.1-14.3l3.5-4.8-2.1-7.6c-8.8-31.2-32.6-70-69.6-113-19.4-22.6-33.1-35.8-49.4-48-58.9-43.8-115.4-71.5-176-86.5-26.3-6.4-60.7-11-83.4-11-9.1 0-9.2 0-12.4 3.3zM850 234v7h-3.5c-3.2 0-3.5-.2-3.5-3 0-2.9-2.9-7-5-7-.5 0-1-.9-1-2 0-1.8.7-2 6.5-2h6.5v7zm118.5 177c.3.5 1.7 1 3 1s2.7-.5 3-1c.3-.6 2.6-1 5.1-1 4.2 0 4.4.1 4.4 2.9 0 2.7-.5 3.1-8.7 6.2-6.5 2.4-11 3.4-17 3.7-7.8.4-8.3.3-8.3-1.6 0-1.6.9-2.1 5.6-2.7 5.9-.7 10.4-3.8 10.4-7 0-1.7 1.6-2 2.5-.5zM572.7 200c-.2 42.1-.5 77.2-.5 78-.1.8.1 4 .4 7 .5 4.5.2 6-1.3 7.9-1.5 1.8-12.1 5.9-43.9 17l-41.9 14.7-27.2 20.7c-15 11.4-28.4 21.2-29.8 21.7-1.4.5-2.5 1.4-2.5 1.9 0 .6-4 6.3-8.9 12.8-29 38.6-47.9 83.5-58.7 139.8-2.1 11-2.7 16.5-2.5 25.5.4 20.2-2.5 37-7.3 42.7-1.3 1.5-2.6 4.7-2.9 7.1-.3 2.4-1.2 5.1-2.1 6.1-1.4 1.5-1.4 2 .4 4.8 5.7 9.4 12.4 37.5 17.4 72.3 3.7 25.8 4 29.4 2.7 31.9-1.1 1.9-.8 2.5 1.7 4.9 5.8 5.4 9.2 15.6 9.2 27.5 0 5.9.3 6.7 4.6 12.6 9.4 12.9 34.4 54.2 42.3 69.8 2.2 4.4 4.7 7.4 9.8 11.5 8.2 6.6 27.1 19.9 44.6 31.4L489 878l24.6 6c13.6 3.3 24.9 6 25.3 6 2.9-.2-7.8-3.7-24.3-7.9-10.9-2.7-22.7-6.4-26.3-8-6.3-3-36.3-22.8-45.6-30.1-7.3-5.9-12-12.1-22.9-30.5-5.6-9.4-13.8-22.9-18.4-30.1-7.1-11.1-8.6-14.3-9.9-20.5-2.3-10.8-3.3-13.7-7.6-20.9-3.4-5.8-3.8-7.2-3.8-13 .1-6.8-5.7-46.9-9.1-63.7-2.7-13.3-6.6-26.4-9.5-32.6-1.4-2.8-2.5-5.9-2.5-7 0-4 3.2-14.3 5.6-17.9 5.1-7.9 7.8-29.2 5.4-43.1-1-6.3-1-7.8.3-10.3.8-1.6 2.9-10.1 4.7-18.9 10.2-50.6 27.7-92.3 55.7-132.1 4.3-6.2 8.5-12.5 9.4-14 .8-1.6 4-4.2 7-5.8 3-1.6 15.3-10.5 27.4-19.6 12.1-9.2 23.8-17.8 26-19.3 2.2-1.4 17.6-7.3 34.3-13.1 16.6-5.8 32.8-11.9 36-13.6 3.1-1.6 6.5-3 7.4-3 2.9 0 6.7-2.2 7.4-4.2.3-1.1.3-4.1-.1-6.9-.6-4-.3-5.7 1.7-9.6l2.3-4.8.3-69.9c.3-68.6.2-69.9-1.8-74-1.3-2.7-4-5.7-7.5-8.2-4-2.8-5.5-4.6-5.6-6.4 0-1.4-.5-3.6-.9-5s-1 31.9-1.3 74zM594.6 136.1c-.9 8.8-.6 141.4.4 147.4.4 2.7.8-30.7.9-74.3 0-43.5-.1-79.2-.3-79.2-.2 0-.6 2.8-1 6.1z"/><path d="M560 285c-1.1 1.1-2 3.2-2 4.6 0 2.2.3 2.4 2.3 1.8 6.2-1.9 6.7-2.3 6.7-5.4 0-2.5-.4-3-2.5-3-1.4 0-3.4.9-4.5 2zM602 299.5c0 .2 2.4 1.7 5.4 3.2 3.9 2 6.6 4.5 9.9 8.9 5.6 7.6 9.2 9.3 29.8 13.4 18.5 3.8 33.1 9 49.9 17.7 24.8 12.8 49.7 32.1 61.2 47.4 7.9 10.6 32 51.5 34.3 58.2 2.1 6.2 2.9 6.9 3.9 3.5.4-1.8-3.9-9.7-18-33.6-14.6-24.5-20.3-33.1-26.5-40.2-13.3-15-32.6-31.1-50.7-42.3-21.1-13.1-52.6-26.4-66.7-28.2-10.4-1.3-24.9-4.7-28.6-6.6-2.2-1.1-3.9-1.7-3.9-1.4zM1000 399.9V410l4.3-2.1c2.3-1.2 4.3-2.3 4.5-2.4.7-.6-5.5-13.1-7.1-14.4-1.6-1.2-1.7-.6-1.7 8.8zM635.5 601.9c-11.4 1.4 2.4 1.6 69.5 1.1 38.8-.3 68-.8 65-1.2-6.4-.9-127.1-.8-134.5.1zM623.5 604c-1.6.4-5.1.8-7.7.9-6.4.1-6.7 1.5-.7 3 4.4 1.2 5.2 1.1 7.6-.6 1.4-1 3.5-2.4 4.7-3 2.3-1.4.9-1.5-3.9-.3zM825.5 604c-1.1.5 40.7.8 96.5.8 54.7 0 96.7-.4 94.5-.9-5.3-1.1-188.4-1-191 .1zM784 608.6c2.5 2.7 4.5 4.9 4.5 5.1 0 .1 1.6-.2 3.5-.6l3.5-.7-3.5-1.8c-1.9-1-5.5-3-8-4.4l-4.5-2.5 4.5 4.9zM1023 607c2.5 2.5 2.7 9.6.5 18.5-2 8.2-1.9 8.2 1.9 8.9 4.5.9 6.1 3 6 8.2l-.1 4.2 5.4.4c2.9.1 5.3.3 5.3.3s-.4-2.7-1-6c-1-6.4-3.7-13.5-5.2-13.5-.4 0-.8-.6-.8-1.4 0-.8-1.8-3.2-4.1-5.3-4.9-4.7-6.4-11-3.4-14.3 1.8-2 1.7-2-2.3-2h-4.2l2 2z"/><path d="M626 613.5l-3.5 3.4-6.9-1.9c-3.7-1.1-7.7-2.2-8.7-2.5-1.8-.6-1.9.3-1.9 25.8v26.5l4 1.6c5.2 2.1 5.8 2 8.1-.7l1.8-2.2.1 4.2v4.3h-14v114.8l7-2.1 7-2 7.9 2.1c10.8 3 25 3.1 27.6.2l1.8-2 2.2 2c1.9 1.8 3.5 2 13.7 2 10.9 0 11.6-.1 13.1-2.3l1.5-2.2 2.4 2.2c2.3 2.2 3.1 2.3 21.4 2.3 14.3 0 21.7-.5 30.4-2 14.4-2.5 15-2.5 15 0 0 1.6.7 2 3.2 2s4.1-.9 6.8-3.9l3.5-4 11.4 1.6c9.2 1.3 11.5 1.3 12.1.3.4-.7 1.1-4.2 1.5-7.8.9-8.6 2.4-6.3 3.2 5.1l.6 8.3-9.2 5.8c-16.3 10.3-24.6 19.6-17.3 19.6 1.5 0 3.3-.4 4.1-.9 1.6-1 6.1 3.6 6.1 6.3 0 1.4-1.6 1.6-11.3 1.6h-11.3l-1.7 3.8c-2.9 6.6-16 20.4-32.7 34.3-3 2.5-10.4 7.2-16.5 10.3-21.7 11.4-38.4 24.2-40.1 31-.5 2.2-1.2 2.6-4 2.6-2.9 0-3.4-.3-3.4-2.4 0-1.3.7-2.9 1.5-3.6 2.4-2 1.9-4.3-.7-3.6-1.3.3-7.8 1.8-14.5 3.3l-12.3 2.7v8.9l4.3-.7c2.3-.4 6.1-1 8.5-1.3l4.2-.6v6.3c0 4.5-.5 6.9-1.7 8.2-1.5 1.7-1.5 1.9.1 3.7 1.6 1.7 1.5 1.9-1.9 2.4-5.4.9-12.1 5.2-15.3 10-4.9 7.1-6.4 12.9-6.9 27.2l-.5 13 8.9 12c4.9 6.6 9.2 12.6 9.6 13.2.6.9-1.5 2.4-6.7 5l-7.5 3.7-5.5-3.7c-4.6-3-6.5-3.7-10.6-3.7h-5v20h-6v45h6.5c4.8 0 6.5.4 6.5 1.3 0 1.9-3 4.3-6.2 5.1-2.3.5-2.8 1.2-2.8 3.6 0 3.5-1.5 3.4 22 2 56.7-3.4 107.1-16.5 156.6-40.9 45.2-22.2 81.5-47.7 124.2-87.4 17.6-16.4 23.8-24.1 44.4-55.7 52.4-80.2 79-152.9 83.4-228.3l.6-11.7h-8.1c-4.4 0-8.1-.4-8.1-.9s.7-2.8 1.5-5.1 1.5-4.9 1.5-5.6c0-1.9-3.4-1.8-5 .1-.8 1-3.1 1.5-6.6 1.5-5.3 0-5.4 0-5.4-3v-3l-6 3-6 3-1.1-2.7c-2.7-7.1-2.5-7.7 3-9.5 4.6-1.4 5.7-1.5 10.7-.1 3.1.8 6 1.1 6.4.6 1.1-1.2 3-12 3-17V611H822l3 5.3c1.6 3 3 5.9 3 6.5 0 .7-1.6 1.2-4 1.2-5.2 0-5.5 1.2-4.7 19.9.9 19.4.8 19.1 6.7 19.1 4.2 0 5.2-.4 7.9-3.5 2-2.3 3.1-4.6 3.1-6.5 0-2.7.3-3 3.1-3h3l-.6 4.7c-1.5 10.1-2 11.8-4 12.1-4.1.6-7.3 2.4-7.8 4.3-.4 1.4-1.4 1.9-4 1.9-2 0-3.9-.5-4.3-1.1-.4-.8-1.3-.4-2.5 1.2-1.5 2-1.9 4.3-1.9 13.6 0 12.8.4 13.4 8.8 14.8 3.8.6 4.2.9 4.2 3.6 0 2.2-.7 3.2-3.1 4.4-5.1 2.7-8.9 14.1-5.7 17.3 2.5 2.5-2.4 1.2-6.8-1.9-7-4.8-7.6-4.2-9.4 8.6-1.7 11.9-1.2 17.1 1.6 19.2 1.1.8 4.9 1.3 10.6 1.3h8.8v6.5c0 5.8-.2 6.5-2 6.5-1.4 0-2-.7-2-2.3 0-3.7-4-6.7-8.7-6.7-2.4 0-4.6.6-5.3 1.5-1.2 1.4-1.5 1.4-3 0-.9-.8-3.5-1.5-5.8-1.5-2.9 0-4.2-.4-4.2-1.4 0-.7-.7-1.9-1.5-2.6-1.4-1.2-1.4-1.5 0-3 2.7-3 2-52.6-1.1-66.8-.5-2.6-3.5-3-5.4-.7-2.7 3.3-8 1.8-18.2-5-5.4-3.6-10.1-6.5-10.4-6.5-.4 0-2.8 1.3-5.3 2.9-2.5 1.6-6.2 3.4-8.3 4-3.9 1.3-6.8 5.7-6.8 10.5 0 1.9-.5 2.6-1.8 2.6-2.5 0-4.7-2.6-6.2-7.3-1.3-4.1-5.3-6.7-10.3-6.7-2.8 0-6.7-4-9.7-10-3.3-6.4-7-17.9-7-21.3 0-2.9.1-2.9 4.1-2.4 5.2.7 8.8 4 9.5 8.9l.7 3.8H739v7h20.1l5.1 4.1c2.8 2.2 6.8 4.9 8.7 5.9 3.4 1.7 14.1 5.1 20.4 6.4l2.7.6v-61h-2.8c-2.5 0-3 .5-4.5 5.4l-1.7 5.4-12.8-3.4c-7-1.9-13.3-3.6-13.9-3.9-1.9-.7-1.6-3.9.5-5.9 1.7-1.5 2.5-1.5 9.1-.1 12.8 2.7 14.9 1.6 8.8-4.3l-3.3-3.2h-67.9c-61.7 0-68 .1-69.7 1.7-1.7 1.5-1.9 1.5-3.6 0-2.7-2.5-4.3-2.1-8.2 1.8zm231.2 8.9c.9 6.1 3.4 9.7 7.7 10.9 2.5.6 3.7.4 5-.7 2.4-2.2 3.1-2 3.1.9 0 4.4 2.8 8.5 6.1 9.2 3.8.7 4.7 2.8 2.4 5.3-3.3 3.7-7.7 1.5-9.4-4.6-.7-2.7-1.3-3-8.1-4.1-9.4-1.6-19.6-4.7-23.7-7.3-2.7-1.6-3.3-2.6-3.3-5.5 0-4 1.4-4.4 4.6-1.4 1.8 1.7 2.6 1.9 4.3 1 1.1-.7 2.3-2.4 2.7-3.9 1.1-5.1 1.3-5.3 4.6-5 3.1.3 3.3.6 4 5.2zM674.4 628c6.3 8.2 14.1 13.5 21.9 14.8 4 .7 4.2.9 4.5 4.6l.3 3.8-8.2-4.3c-4.6-2.4-10.3-6.3-12.8-8.7-3.3-3.1-5-4.1-6.5-3.6-3.3 1-5.6 3.5-5.6 6 0 3.4-1.4 3.7-4 .9-3.7-3.9-11.8-8.8-16.8-10l-4.4-1.2 3.2-3.6 3.2-3.7h21.4l3.8 5zm292.8 19l3.3 2.9-8.2.1c-7.6 0-8.3-.2-8.3-2 0-1.3 1-2.2 3.3-2.9 5.2-1.5 6.5-1.3 9.9 1.9zm-58.2 7.5c0 4.7-.3 8.5-.7 8.5-.5 0-2.8-1.4-5.3-3-3.5-2.4-5.6-3-9.7-3-2.8 0-5.5.4-5.8 1-.3.5-1 1-1.6 1-1.4 0-1-5.2.5-7.3 1.6-2.1 5.9-2.2 7.6-.2 1 1.2 1.9.9 6.3-2 8.1-5.5 8.7-5.1 8.7 5zm-13.4 15.6c1.9 3.9 3.3 7.7 3 8.5-.4.9-2.1 1.4-5.1 1.4-4.9 0-5.1-.1-3.3-2.9.9-1.4.8-2.7-.5-6-2.3-5.6-2.2-8.1.3-8.1 1.4 0 2.9 1.9 5.6 7.1zm39.2 9.2l.3 3.7h-10.9l-1.6-4.7c-.9-2.6-1.6-5-1.6-5.4 0-.4 3 .1 6.8 1 6.7 1.7 6.7 1.7 7 5.4zm84.2-1.8v5.5h-5.1c-5.1 0-5.1 0-4.6-2.8 1.4-6.7 2.5-8.2 6.2-8.2h3.5v5.5zm-334.9 4.1l3.4 3.5-3.8 3.5c-3 2.7-4.5 3.5-6.9 3.2-3-.3-3.3-.6-4.9-7.1l-1.7-6.7h5.2c4.7 0 5.6.4 8.7 3.6zM677 705c0 6.3-.2 7-2 7s-2-.7-2-7 .2-7 2-7 2 .7 2 7zm166.4 3.2c1.4 3.5 2.6 6.7 2.6 7.1 0 .4-2.1.7-4.7.5-4.6-.3-4.7-.3-6.4-5.3-2.7-7.7-2.5-8.5 1.9-8.5 3.8 0 4 .1 6.6 6.2zm-94.2-.4l4.1 3.9-5.1 4.7c-2.8 2.6-5.4 4.8-5.8 4.9-.9.2-4.4-16-3.6-16.8.3-.3 1.8-.5 3.4-.5 2 0 4.2 1.2 7 3.8zM640 715.3c0 .3-5.5 16.8-6.5 19.4-.3.9-1.8.8-5.7-.6l-5.3-1.8-.3-7-.3-6.9 7.8-1.6c8.5-1.7 10.3-2 10.3-1.5zm30.4 13.9c1.5 5.7 2.4 7.4 4.4 8.3 2.1.9 2.2 1.6 2.2 11.8 0 9.7-.2 10.8-1.7 10.5-2.5-.5-12.1-22.1-12.2-27.6-.1-4.2-.1-4.2 3.4-4.2 2 0 3.7.5 3.9 1.2zm187.6.3c1.7 2 6.9 1.9 9.2-.2 1.7-1.5 1.8-1.5 1.8.2 0 1 .7 2.6 1.6 3.6 1.5 1.7 1.2 2-4.5 4.8-4.5 2.3-7.4 3.1-11.5 3.1h-5.4l1.5-5.8c.8-3.1 1.7-6 2-6.5.7-1.2 4-.8 5.3.8zM677 768v5l-7 3.5-7 3.5v-3.5c0-2.8.5-3.7 2.4-4.5 2.8-1 4.6-3.8 4.6-6.9 0-1.7.6-2.1 3.5-2.1h3.5v5zm162.9 8.4c1.9 2 2.8 3.6 2.2 4-1 .7-8.1-5-8.1-6.5 0-1.9 2.8-.8 5.9 2.5zm-19.2 32.8c4.4 4.3 4.5 8.4.2 13.3-4 4.5-6.7 4.3-8.5-.5-2-5.5-1.7-11.7.6-14 2.7-2.7 3.9-2.5 7.7 1.2zm60.4 3.9l1.6 5.9h-5.5c-5.3 0-5.4-.1-3.8-1.9 1.5-1.6 1.5-1.9.1-3.1-1.4-1.2-1.2-1.7 1.6-4.6 1.8-1.9 3.5-3.1 3.8-2.8.3.3 1.3 3.2 2.2 6.5zm-41.8 18c5.8 1.5 4.9 3.9-1.6 3.9-5.6 0-7.7-1.2-7.7-4.3 0-2 0-2 9.3.4zm-38.5 3.9c4.5 4.1 4.5 9.1 0 13.7-4.6 4.7-6.1 4.3-8.2-2.3-1.9-5.9-1.5-9.7 1.1-12.7 2.2-2.3 3.3-2.1 7.1 1.3zM661 958.5c0 1.9-.1 3.5-.3 3.5-2.1 0-9.7-3.5-9.7-4.4 0-2.1 1.1-2.6 5.7-2.6 4.3 0 4.3 0 4.3 3.5zm75 29.8c0 .2-.7 2.4-1.6 5-1.5 4.4-1.8 4.7-5 4.7-2.5 0-3.4-.4-3.4-1.7 0-2.3 5.9-8.3 8.2-8.3 1 0 1.8.1 1.8.3zm-78 51.8v3.7l-5-1.6c-4.7-1.5-5-1.8-5-5.1 0-1.9.8-4.3 1.7-5.3 1.6-1.8 1.8-1.7 5 1.4 2.6 2.5 3.3 4 3.3 6.9z"/><path d="M661 630c0 1.8 3.3 2.9 4.7 1.5 1.9-2 1.6-2.5-1.7-2.5-1.6 0-3 .4-3 1zM1033 612.1c0 1.9 2.1 4.9 3.4 4.9 1.2 0 2.5-2.8 2.6-5.3 0-.4-1.3-.7-3-.7-1.6 0-3 .5-3 1.1zM813.6 615.8c-.9 1.7-2.6 3.8-3.8 4.6-2 1.4-2.4 1.4-4.5.1L803 619v31.8c0 25-.3 32.2-1.3 33.6-1.2 1.6-1.2 3.2-.1 10 .8 4.5 1.4 11.4 1.4 15.3v7.3l2.7-1.1c1.5-.5 4.4-.7 6.5-.4 2.6.5 3.8.3 3.8-.5 0-.7.8-2.8 1.7-4.8 1.4-2.9 1.5-3.6.3-4-2.4-.8-5.7-5.1-6.4-8.3-.3-1.8-.6-7.4-.6-12.6 0-7.2.5-10.4 1.9-13.7 1.8-3.8 1.9-5.1.9-11.2-.5-3.8-1.1-13.7-1.2-22.1l-.1-15.2 2.7-2.8c2.4-2.5 2.5-3 1.3-5.2l-1.3-2.5-1.6 3.2zM596.8 622c-.9 7.6-1 147.1-.1 154.5.5 3.5 1-17.6 1.3-51.5.5-62.2 0-112.2-1.2-103zM1051 633.9c0 1 .7 2.4 1.6 3.1 1.2 1.1 1.8 1 3.1-.3 2.1-2.1.9-4.7-2.2-4.7-1.8 0-2.5.5-2.5 1.9zM1044.7 661.1c-.3 3-1.3 13.3-2.1 22.9-6.3 68.7-35.6 142.7-87.7 220.6-17.9 26.9-23.5 34-38 47.6-40.1 37.8-82.1 67.8-124.6 89.2-50.9 25.5-110.9 41-166.9 43.3l-16.1.6 4.5 2.4c5.2 2.8 6.6 4.3 8.8 9.4.8 2 2.6 4.1 4 4.8 5.7 2.5 40.2.3 67.9-4.5 84.6-14.6 159.4-53.7 233.9-122.2 17.9-16.6 23.5-23.4 42.1-51.2 33.1-49.8 55.2-93.5 70.2-138.9 10.9-33 18.3-73.1 18.3-98.8 0-9.5-1.2-12.5-6.3-15.8-2.4-1.6-3.3-3.2-4.3-7.3-1.7-7.8-3.1-8.6-3.7-2.1zM716 663.7c0 .4 1.1 2.5 2.4 4.4 2.1 3.1 3.2 3.7 7.1 4.1 3.2.4 5.5 1.4 7.4 3.2l2.8 2.6 1.8-2c1-1.1 3.7-2.5 5.9-3.2 6.6-1.9 6.4-2.8-.5-2.8-5.1 0-7-.4-8.2-1.8-1-1-1.7-2.4-1.7-3 0-.8-2.3-1.2-6.9-1.2-3.8 0-7.6-.3-8.5-.6-.9-.3-1.6-.2-1.6.3zM145 665.1c0 .8-.3 2.3-.6 3.4-.4 1.5.5 2.6 3.9 4.7 6.1 3.9 6.6 3.7 5.4-2.1-.7-3.9-1.4-5.1-3.2-5.5-1.3-.3-3-.9-3.9-1.2-1-.4-1.6-.1-1.6.7zM219.2 714.2c-3.9 3.6-4.8 4-8 3.4-3.8-.6-8.2.1-8.1 1.3 0 .3 1.3 1.6 2.9 2.9l2.9 2.3 3.8-2.5c4-2.8 10.8-3.5 14.3-1.6 1.7.9 2.2.4 3.8-3.2 1.8-4.3 1.8-4.3-.2-4.9-6.9-1.9-7-1.9-11.4 2.3zM165.5 727.1c-1.1.4-5.4.8-9.5.9l-7.5.2 7.6 2.1c4.3 1.2 8.7 3.1 9.8 4.1 2.9 2.7 4 1 2.7-4-.9-3.6-1.4-4-3.1-3.3zM145.4 738.7c1.6 8.4 2.7 11.3 4.4 11.3 1.9 0 11.2-8.9 11.2-10.7 0-1-11.1-4.3-14.6-4.3-1.3 0-1.5.7-1 3.7zM138.2 740.5c0 1.6.5 4.8 1.3 7 1.7 5.3 1.7 3.5.1-4-.9-3.8-1.4-4.9-1.4-3zM141 752.2c0 .3.9 2.6 2 5.2 1.2 2.5 3 9 4.1 14.3 2.3 10.6 11.7 36.9 20.4 56.9 5.6 12.8 8.7 18.6 13.8 26.3 1.6 2.4 5.4 9.1 8.3 14.8 6.6 13 38.8 58.4 49.4 69.8 4.2 4.4 9.3 10.2 11.4 12.9 6.2 7.7 29 30.8 41.6 42 41.3 36.9 80.5 62.6 111.2 73 11.4 3.9 15.5 3.4 22.2-2.4 4.1-3.6 6.2-3.4 9.3.8 1.2 1.7 3.8 3.3 6.4 4.1 14 4.2 14.2 4.3 17.3 9.9 4.4 8.4 4.3 8.3 39.8 15.7 14.9 3 18.3 3.4 21.6 2.6 4.7-1.3 8.7-5.1 9.6-8.9 1.2-5.5 2.2-6 5.8-2.6 1.8 1.7 5.3 3.8 7.8 4.7 2.5.9 6.3 3.5 8.4 5.7 2.1 2.2 5 4.3 6.4 4.7 3.6.9 18.8-.5 22.7-2.1 6-2.5 6.6-5.9 3.5-18l-2.1-7.8 3.1-4.6c4.2-6.4 5.3-10.7 4.9-19.5-.5-8.6-2.4-11.7-8.5-13.7-3.3-1.1-4.4-3.5-2.5-5.6 1.7-1.9 5.1-13.9 5.1-18.4 0-5.2-.6-6.1-7.2-11.4-3-2.3-4.8-4.5-4.8-5.8 0-1.2 2-3.9 4.6-6.4l4.7-4.3-.6-5.3c-.4-2.9-.7-10-.7-15.8v-10.4l-6-5.8c-3.9-3.7-6-6.5-6-8 0-1.8-.2-2-1-.8-.5.8-.7 2.3-.4 3.2.3 1-.3 3.4-1.2 5.4-1.5 3.1-1.6 4.1-.4 6.8 2.7 6.5 2.5 10-1 13.9-3.8 4.3-7.5 5.3-12.4 3.3-2.8-1.2-4.2-1.3-6.1-.4-2.6 1.2-4.6 4.4-2.1 3.5 6.3-2.4 11.9-1.5 13 2.1.4 1.3 2.2 2.1 5.8 2.8 4.1.7 5.6 1.5 6.6 3.4 2 3.7.8 12.4-2.7 20.9-1.7 4.1-3.1 7.5-3.1 7.6 0 .2 1.6.6 3.5.9 5.8 1.1 6.5 3.1 6.5 19.8 0 14.6 0 14.8-2.9 19-2.1 3.1-2.7 4.7-2.1 6.2.7 1.8 2.9 10.2 4.7 18.3.3 1.4-.3 3-1.8 4.5-2.1 2.1-4.4 2.6-18.4 4.2-17.7 2.1-19.9 1.8-21.1-3.2-1.3-5-4.1-7.6-8.5-7.7-5.7-.2-7.4-2.3-7.4-9.5 0-4.6.4-6.4 2-7.9 2.3-2.2 19.7-9.8 26.5-11.6 3.9-1 4.5-1.5 4.8-4.1.6-5.6 4.4-18.9 6.2-22.2 1.8-3 1.8-3.2.2-3.2-.9 0-4.4-1.3-7.8-2.9-5.7-2.7-6.1-2.7-8.1-1.2-2 1.7-2 1.8-.2 4 1.5 1.8 1.9 4 1.9 10.3v7.9l-5 5.3c-4.4 4.6-6 5.6-11.5 7-6.9 1.7-11.3 2-13.2.8-3-1.9-4.3-11.4-2.3-16.7.8-2 .7-2.6-.2-2.3-.6.2-1.7 2.1-2.4 4.2-1.1 3.2-1.1 5 .5 12.4 1 4.8 2.5 10 3.3 11.7.8 1.6 2.3 6.2 3.2 10 2.3 9.4 1.4 11.5-5.9 14.9l-5.6 2.5-23.2-4.9c-12.8-2.8-26.4-5.7-30.3-6.6-10.3-2.2-11.3-3.6-9.9-14.4l.7-5.5-5-1.7c-5-1.6-5.2-1.5-8.3.8-3.8 2.8-7.1 3.1-9.3.8-1.5-1.4-2-2.9-2.9-7.9-.3-1.7-.5-1.5-2 1.2-2.2 4.2-6.6 7.2-12.1 8.2-6 1.1-16.5-2.3-33.8-11-31.2-15.6-63.8-40.4-100.7-76.5-16.1-15.8-16.4-16.1-15.8-19.6l.5-3.6-3.6.5c-3 .4-4.1 0-5.8-1.9-1.1-1.2-12.8-17.3-26-35.7-22.1-30.9-23.8-33.7-23.8-37.5.1-3.2-.4-4.4-2.4-6-7.6-6-19.1-30.2-34.4-72.6-5.8-15.9-6-16.7-5.4-23.8.5-6.6.4-7.2-1.3-7.2-1.1 0-2.9-1.2-4-2.6-1.2-1.5-2.1-2.4-2.1-2.2zM197.6 760c-.8 4.9-.3 6 3 6 3 0 3-.7 0-6l-2.3-4.1-.7 4.1zM234.7 770.3c-1.5 1.3-2.5 2.6-2.1 3 .3.3 1.3 0 2.1-.8s2.9-1.5 4.6-1.5c3-.1 3.1-.1 1.3-1.5-2.5-1.9-2.5-1.9-5.9.8zM768.7 789.6c-3.2 3-4.3 3.4-9 3.4-3 0-6.1-.6-7.4-1.5-1.8-1.3-3.1-1.3-10.4 0-12.9 2.3-107.8 2.1-116.5-.2-5.6-1.5-6.6-1.5-11.5-.1-4.8 1.5-5 1.6-2.1 1.7 2.5.1 3.7.8 5.2 3.3 1.1 1.8 2 4.1 2 5 0 .9 1.2 3.1 2.7 4.9 2.7 3.1 2.8 3.2 9.8 2.6 4.4-.3 9.4 0 12.9.8 4.2 1 16.6 1.4 48.4 1.4 43.2.1 57.8.8 59.3 3.2.5.9 1.1 1 2.1.2.7-.6 2.7-1.4 4.5-1.7 2.5-.6 3.3-1.4 3.8-3.9 1.1-4.9 4.9-9.3 13.1-15 7.8-5.4 7.9-6.1.9-6.9-3.6-.5-4.5-.1-7.8 2.8zM745.7 824.5c-6.4 7.9-18.2 19.3-27.2 26.2-2.2 1.7-9.8 6.4-17 10.5-7.1 4.1-16.8 10-21.5 13-9.6 6.3-13.7 7.9-26.4 10.3-8.4 1.5-17.1 4.3-16.3 5.1.2.2 6.3-.9 13.5-2.6 8.8-2 13.9-2.7 15.4-2.1 1.9.7 3.4-.1 8.8-4.4 8.2-6.6 15-10.9 30.2-19.1 12.9-6.9 24.9-16.4 37.1-29.3 5.8-6.2 11.5-14.6 10.5-15.6-.2-.2-3.4 3.4-7.1 8zM547.2 903.8c-.2 4.1-4.1 12.6-6.7 14.5-.5.4-2.2.6-3.7.4-1.6-.2-2.8-.2-2.8 0 0 1.2 6.3 2.5 11.2 2.4 6.5-.1 13.8 2.6 18.1 6.7l2.7 2.6-1.6-5.5c-1.6-5.6-4.4-8.8-12.2-14.1-3.5-2.3-4.1-3.3-4.5-7l-.4-4.3-.1 4.3zM635.9 912.7c-2.2.3-2.5.8-2.1 3.3.3 2.3-.3 3.6-2.7 6.1-2.7 2.6-3.7 3.1-6.5 2.6-2.8-.4-3.3-.3-2.9 1.1.2 1-.5 5.8-1.6 10.7-2.2 9.9-4.1 12.5-9.4 12.5-2.9 0-2.9.1-1.4 1.8 1 1 1.7 2.5 1.7 3.2 0 .7-.7 2.2-1.7 3.2-1.5 1.7-1.5 1.8 0 1.8 1 0 2.6.9 3.7 2 1.8 1.8 2 3.3 2 17.4v15.4l3.7.7c2 .3 5.5 1.9 7.8 3.5 3.5 2.4 4.4 2.6 6.4 1.6 2.2-1.2 2.2-1.3-5.6-11.7l-7.8-10.4-.3-8.2c-.4-9.2.9-21.1 3.3-29 1.9-6.4 6.6-12.7 12.5-16.9 5.9-4.3 10-8.3 10-10 0-1.4-3.1-1.6-9.1-.7z"/><path d="M508.2 916.5c-.7 1.4-1.2 2.8-1.2 2.9 0 .2 1.8-.1 4-.6 2.9-.8 4-1.6 4-2.9 0-3.1-5.4-2.6-6.8.6zM600.4 925.2l-1.9 2.3 2.3-1.9c1.2-1.1 2.2-2.1 2.2-2.3 0-.8-.8-.2-2.6 1.9zM605.7 929.8c-3.4 3.5-3.4 4.5-.1 8.8 3.2 4.2 6.1 4.5 7 .6.3-1.5 1-4.3 1.5-6.2 1.4-5.5 1.2-6-2.4-6-2.3 0-4.1.8-6 2.8zM491.5 935.7c-2.7 1.9-6.2 3.7-7.7 4-3.3.6-3.3.6-1.2 3.8 1.5 2.3 1.8 2.3 3.7 1 1.2-.8 3.8-1.5 5.8-1.5 2.1 0 4.4-.3 5.3-.6 1.9-.7 2.2-6.3.4-8.5-1.1-1.4-1.9-1.2-6.3 1.8zM601 944.5c1.3 1.4 2.6 2.5 2.8 2.5.3 0-.5-1.1-1.8-2.5s-2.6-2.5-2.8-2.5c-.3 0 .5 1.1 1.8 2.5zM603 981.7v15.7l3-2.9 3-2.9V966h-6v15.7zM594.6 976.7c-.3 3.8-.2 9.5.3 12.8.7 5.4.9 4.6 1-6.8 0-7-.1-12.7-.3-12.7-.2 0-.7 3-1 6.7zM597.5 1009c0 7.5 0 7.6 2.2 6.5 2-.9 2.3-1.8 2.3-6.5s-.3-5.6-2.3-6.5c-2.2-1.1-2.2-1-2.2 6.5zM497 1016c0 .5 1 1 2.3 1 1.8 0 1.9-.2.7-1-1.9-1.3-3-1.3-3 0zM560 1022.4c-2.1 4.6-5 17.1-5 21.2 0 1.9.8 2.8 3.5 4 4.2 1.7 4.5 1.7 4.5.1 0-.8.9-2.2 2-3.2 1.8-1.6 2-3.1 2-14.2V1018h-2.6c-2 0-2.9.9-4.4 4.4zM594.7 1029.7c-.8 8.4-.7 21.7.3 30.3.5 4.5.7-.1.8-15.3.1-11.9 0-21.7-.2-21.7s-.6 3-.9 6.7zM532.8 1054.8c-10.5 4.6-10.8 4.8-10.8 7.9 0 3.6 1.8 4.4 4 1.8.7-.9 1.6-1.4 2.1-1.3 1.3.5 9.9 12.7 9.9 14.1 0 1.1 2.5 1.1 13.6-.4 7.5-1 13.8-2 14.1-2.2.2-.2-.1-1.7-.7-3.3-.6-1.6-1.6-5.1-2.1-7.8-1.2-6.6-3.2-9.4-8.2-11.7-6.3-2.8-10.1-2.3-21.9 2.9zM596.1 1068.5c0 1.1.8 3.8 1.8 6l1.9 4 .1-3.2c.1-1.7-.4-3.5-1-3.8-.6-.4-1.4-1.7-1.9-2.9-.8-2-.9-2-.9-.1z"/></svg>